<svg xmlns="http://www.w3.org/2000/svg" width="400" height="346.667" preserveAspectRatio="xMidYMid meet" version="1.0" viewBox="0 0 300 260"><metadata>Created by potrace 1.10, written by Peter Selinger 2001-2011</metadata><g fill="#000" stroke="none"><path d="M0 2585 c0 -9 7 -29 15 -46 15 -28 16 -29 40 -13 25 16 25 16 25 -15 0 -28 3 -31 31 -31 31 0 31 0 15 -25 -16 -24 -16 -26 9 -37 32 -14 32 -22 -1 -36 -24 -11 -24 -13 -10 -34 22 -31 20 -35 -14 -30 -28 4 -30 2 -30 -28 0 -32 0 -32 -25 -16 -24 16 -25 15 -40 -13 -21 -41 -19 -93 6 -135 l20 -35 -20 -11 c-27 -14 -27 -46 0 -60 l20 -11 -20 -35 c-25 -42 -27 -94 -6 -135 15 -28 16 -29 40 -13 l25 16 0 -81 c0 -77 -3 -87 -40 -155 -43 -79 -49 -119 -25 -167 15 -28 16 -29 40 -13 25 16 25 16 25 -15 0 -28 3 -31 31 -31 31 0 31 0 15 -25 -16 -24 -16 -26 9 -37 32 -14 32 -22 0 -36 -25 -11 -25 -13 -9 -37 16 -25 16 -25 -15 -25 -28 0 -31 -3 -31 -31 0 -31 0 -31 -25 -15 -24 16 -25 15 -40 -13 -24 -48 -18 -88 25 -167 37 -68 40 -78 40 -154 0 -44 -3 -80 -7 -80 -3 0 -14 7 -24 16 -16 15 -19 14 -33 -15 -22 -41 -20 -93 5 -135 l20 -35 -20 -11 c-27 -14 -27 -46 0 -60 l20 -11 -20 -35 c-25 -42 -27 -94 -6 -135 15 -28 16 -29 40 -13 25 16 25 16 25 -16 0 -30 2 -32 30 -28 34 5 36 1 14 -30 -14 -21 -14 -23 10 -34 33 -14 33 -22 1 -36 -25 -11 -25 -13 -9 -37 16 -25 16 -25 -15 -25 -28 0 -31 -3 -31 -31 0 -31 0 -31 -25 -15 -24 16 -25 15 -40 -13 -17 -34 -20 -61 -5 -61 5 0 14 9 20 20 l11 20 39 -20 c47 -24 90 -25 131 -5 28 15 29 17 14 38 -8 12 -15 24 -15 27 0 3 39 3 87 0 78 -4 95 -9 154 -43 72 -40 113 -46 160 -22 28 15 29 17 14 38 -21 30 -19 34 15 29 28 -4 30 -2 30 28 0 32 0 32 25 16 24 -16 26 -16 37 9 14 32 22 32 36 0 11 -25 13 -25 37 -9 25 16 25 16 25 -16 0 -30 2 -32 30 -28 34 5 36 1 15 -29 -15 -21 -14 -23 14 -38 47 -24 88 -18 160 22 59 34 76 39 154 43 48 3 87 3 87 0 0 -3 -7 -15 -15 -27 -15 -21 -14 -23 14 -38 41 -20 84 -19 131 5 l39 20 11 -20 c14 -26 46 -26 60 1 l11 20 35 -20 c42 -25 94 -27 135 -6 28 15 29 17 14 38 -8 12 -15 24 -15 27 0 3 39 3 87 0 78 -5 96 -10 154 -43 72 -40 113 -46 160 -22 28 15 29 17 14 38 -21 30 -19 34 16 29 30 -4 31 -3 27 27 -5 35 -1 37 30 15 21 -14 23 -14 34 10 14 33 22 33 36 1 11 -25 13 -25 37 -9 25 16 25 16 25 -16 0 -30 2 -32 30 -28 34 5 36 1 15 -29 -15 -21 -14 -23 14 -38 47 -24 88 -18 160 22 59 34 76 39 154 43 48 3 87 3 87 0 0 -3 -7 -15 -15 -27 -15 -21 -14 -23 14 -38 41 -20 84 -19 131 5 l39 20 11 -20 c6 -11 15 -20 20 -20 15 0 12 27 -5 61 -15 28 -16 29 -40 13 -25 -16 -25 -16 -25 15 0 28 -3 31 -31 31 -31 0 -31 0 -15 25 16 24 16 26 -9 37 -32 14 -32 22 1 36 24 11 24 13 10 34 -22 31 -20 35 15 30 30 -4 31 -3 27 27 -5 35 -1 37 29 16 21 -15 23 -14 38 14 21 41 19 93 -6 135 l-20 35 20 11 c27 14 27 46 0 60 l-20 11 20 35 c25 42 27 94 6 135 -15 28 -16 29 -40 13 l-25 -16 0 82 c0 78 2 87 40 155 43 78 49 118 25 166 -15 28 -16 29 -40 13 -25 -16 -25 -16 -25 15 0 28 -3 31 -31 31 -31 0 -31 0 -15 25 16 24 16 26 -9 37 -14 6 -25 14 -25 18 0 4 11 12 25 18 25 11 25 13 9 37 -16 25 -16 25 15 25 28 0 31 3 31 31 0 31 0 31 25 15 24 -16 25 -15 40 13 24 48 18 88 -25 166 -38 68 -40 77 -40 155 l0 82 25 -16 c24 -16 25 -15 40 13 21 41 19 93 -6 135 l-20 35 20 11 c27 14 27 46 0 60 l-20 11 20 35 c25 42 27 94 6 135 -15 28 -17 29 -38 14 -30 -21 -34 -19 -29 16 4 30 3 31 -27 27 -35 -5 -37 -1 -15 30 14 21 14 23 -10 34 -33 14 -33 22 -1 36 25 11 25 13 9 37 -16 25 -16 25 15 25 28 0 31 3 31 31 0 31 0 31 25 15 24 -16 25 -15 40 13 17 34 20 61 5 61 -5 0 -14 -9 -20 -21 l-11 -20 -35 20 c-42 25 -94 27 -135 6 -28 -15 -29 -16 -13 -40 l16 -25 -82 0 c-78 0 -87 2 -155 40 -78 43 -118 49 -166 25 -28 -15 -29 -16 -13 -40 16 -25 16 -25 -15 -25 -28 0 -31 -3 -31 -31 0 -31 0 -31 -25 -15 -24 16 -26 16 -37 -9 -14 -32 -22 -32 -36 0 -11 25 -13 25 -37 9 -25 -16 -25 -16 -25 15 0 28 -3 31 -31 31 -31 0 -31 0 -15 25 16 24 15 25 -13 40 -48 24 -88 18 -166 -25 -68 -38 -77 -40 -155 -40 l-82 0 16 25 c16 24 15 25 -13 40 -41 21 -93 19 -135 -6 l-35 -20 -11 20 c-14 27 -46 27 -60 0 l-11 -20 -35 20 c-42 25 -94 27 -135 6 -28 -15 -29 -16 -13 -40 l16 -25 -82 0 c-78 0 -87 2 -155 40 -78 43 -118 49 -166 25 -28 -15 -29 -16 -13 -40 16 -25 16 -25 -15 -25 -28 0 -31 -3 -31 -31 0 -31 0 -31 -25 -15 -24 16 -26 16 -37 -9 -14 -32 -22 -32 -36 0 -11 25 -13 25 -37 9 -25 -16 -25 -16 -25 15 0 28 -3 31 -31 31 -31 0 -31 0 -15 25 16 24 15 25 -13 40 -48 24 -88 18 -166 -25 -68 -38 -77 -40 -155 -40 l-82 0 16 25 c16 24 15 25 -13 40 -41 21 -93 19 -135 -6 l-35 -20 -11 20 c-13 25 -30 28 -30 6z m159 -13 c23 -14 27 -21 20 -35 -6 -9 -21 -17 -34 -17 -22 0 -25 5 -25 35 0 41 0 41 39 17z m1221 -17 c0 -30 -3 -35 -25 -35 -13 0 -28 8 -34 17 -7 14 -3 21 17 34 38 25 42 23 42 -16z m279 17 c23 -14 27 -21 20 -35 -6 -9 -21 -17 -34 -17 -22 0 -25 5 -25 35 0 41 0 41 39 17z m1221 -17 c0 -30 -3 -35 -25 -35 -13 0 -28 8 -34 17 -7 14 -4 21 17 35 37 25 42 23 42 -17z m-2308 11 c30 -22 1 -43 -64 -48 -32 -3 -58 -2 -58 1 0 5 88 57 100 59 3 1 13 -5 22 -12z m431 -16 c26 -13 47 -26 47 -29 0 -4 -26 -5 -57 -3 -66 4 -95 25 -65 48 9 7 19 12 22 11 3 -1 26 -13 53 -27z m1069 16 c30 -22 1 -43 -64 -48 -32 -3 -58 -2 -58 1 0 6 90 59 100 60 3 0 13 -6 22 -13z m431 -16 c26 -13 47 -26 47 -29 0 -4 -26 -5 -57 -3 -66 4 -95 25 -65 48 9 7 19 12 22 11 3 -1 26 -13 53 -27z m-985 -15 c11 -25 13 -25 37 -9 25 16 25 16 25 -15 0 -28 3 -31 31 -31 31 0 31 0 15 -25 -16 -24 -16 -26 9 -37 32 -14 32 -22 -1 -36 -24 -11 -24 -13 -10 -34 22 -31 20 -35 -14 -30 -28 4 -30 2 -30 -28 0 -32 0 -32 -25 -16 -24 16 -26 16 -37 -9 -6 -14 -14 -25 -18 -25 -4 0 -12 11 -18 25 -11 25 -13 25 -37 9 -25 -16 -25 -16 -25 16 0 30 -2 32 -30 28 -34 -5 -36 -1 -14 30 14 21 14 23 -10 34 -33 14 -33 22 -1 36 25 11 25 13 9 37 -16 25 -16 25 15 25 28 0 31 3 31 31 0 31 0 31 25 15 24 -16 26 -16 37 9 6 14 14 25 18 25 4 0 12 -11 18 -25z m-1266 -85 c-42 -25 -56 -28 -72 -20 -16 9 -18 15 -10 30 9 17 21 20 73 20 l62 0 -53 -30z m288 26 c0 -2 -18 -34 -39 -71 -34 -57 -49 -72 -106 -106 -37 -21 -69 -39 -71 -39 -2 0 -4 14 -4 31 0 29 -2 31 -30 27 -35 -5 -35 -5 -14 27 15 24 15 25 -10 36 -26 12 -35 29 -16 29 5 0 35 16 67 35 53 32 65 34 141 35 45 0 82 -2 82 -4z m90 -18 c-1 -16 -14 -31 -47 -51 -25 -15 -47 -26 -50 -24 -2 3 9 25 24 50 20 33 35 46 51 47 16 0 22 -6 22 -22z m313 -25 c15 -25 26 -47 24 -50 -3 -2 -25 9 -50 24 -33 20 -46 35 -47 51 0 16 6 22 23 22 15 -1 30 -14 50 -47z m238 12 c33 -19 64 -35 70 -35 18 0 8 -17 -17 -29 -25 -11 -25 -12 -10 -36 21 -32 21 -32 -14 -27 -28 4 -30 2 -30 -27 0 -17 -2 -31 -4 -31 -2 0 -34 18 -71 39 -57 34 -72 49 -106 106 -21 37 -39 69 -39 71 0 2 36 4 81 4 74 0 85 -3 140 -35z m149 15 c8 -15 6 -21 -10 -30 -16 -8 -30 -5 -72 20 l-53 30 62 0 c52 0 64 -3 73 -20z m422 -10 c-42 -25 -56 -28 -72 -20 -16 9 -18 15 -10 30 9 17 21 20 73 20 l62 0 -53 -30z m288 26 c0 -2 -18 -34 -39 -71 -34 -57 -49 -72 -106 -106 -37 -21 -69 -39 -71 -39 -2 0 -4 14 -4 31 0 29 -2 31 -30 27 -35 -5 -35 -5 -14 27 15 24 15 25 -10 36 -26 12 -35 29 -16 29 5 0 35 16 67 35 53 32 65 34 141 35 45 0 82 -2 82 -4z m90 -18 c-1 -16 -14 -31 -47 -51 -25 -15 -47 -26 -50 -24 -2 3 9 25 24 50 20 33 35 46 51 47 16 0 22 -6 22 -22z m313 -25 c15 -25 26 -47 24 -50 -3 -2 -25 9 -50 24 -33 20 -46 35 -47 51 0 16 6 22 23 22 15 -1 30 -14 50 -47z m249 6 l71 -42 -27 -14 c-26 -14 -27 -15 -12 -38 21 -32 21 -32 -14 -27 -28 4 -30 2 -30 -27 0 -17 -2 -31 -4 -31 -2 0 -34 18 -71 39 -57 34 -72 49 -106 106 -21 37 -39 69 -39 71 0 2 36 4 81 4 76 0 84 -2 151 -41z m138 21 c8 -15 6 -21 -10 -30 -16 -8 -30 -5 -72 20 l-53 30 62 0 c52 0 64 -3 73 -20z m-2128 -109 c-15 -28 -29 -51 -32 -51 -3 0 -4 26 -2 57 4 67 26 96 48 64 11 -16 9 -26 -14 -70z m130 9 c1 -33 1 -60 -2 -60 -3 0 -17 23 -33 50 -22 42 -25 53 -15 69 9 15 16 17 29 10 13 -6 18 -25 21 -69z m1370 -9 c-15 -28 -29 -51 -32 -51 -3 0 -4 26 -2 57 4 67 26 96 48 64 11 -16 9 -26 -14 -70z m130 9 c1 -33 1 -60 -2 -60 -3 0 -17 23 -33 50 -22 40 -25 55 -17 70 9 16 15 18 30 10 14 -7 19 -24 22 -70z m-1702 -50 c0 -74 -3 -86 -37 -150 -21 -38 -41 -70 -44 -70 -3 0 -11 12 -18 26 -11 25 -12 25 -36 10 -25 -16 -25 -16 -25 14 0 27 -3 30 -30 30 -16 0 -30 2 -30 4 0 2 18 34 39 71 33 56 50 73 103 105 35 21 66 39 71 39 4 1 7 -35 7 -79z m317 40 c51 -29 68 -46 100 -100 21 -36 40 -68 41 -72 2 -5 -10 -8 -27 -8 -28 0 -31 -3 -31 -30 0 -30 0 -30 -25 -14 -24 15 -25 15 -36 -10 -7 -14 -15 -26 -18 -26 -3 0 -23 32 -43 70 -35 64 -38 76 -38 150 0 45 3 80 8 78 4 -1 35 -19 69 -38z m1183 -40 c0 -74 -3 -86 -37 -150 -21 -38 -41 -70 -44 -70 -3 0 -11 12 -18 26 -11 25 -12 25 -36 10 -32 -21 -32 -21 -27 14 4 28 2 30 -27 30 -17 0 -31 2 -31 4 0 2 18 34 39 71 33 56 50 73 103 105 35 21 66 39 71 39 4 1 7 -35 7 -79z m317 40 c51 -29 68 -46 100 -100 21 -36 40 -68 41 -72 2 -5 -10 -8 -27 -8 -28 0 -31 -3 -31 -30 0 -30 0 -30 -25 -14 -24 15 -25 15 -36 -10 -7 -14 -15 -26 -18 -26 -3 0 -23 32 -43 70 -35 64 -38 76 -38 150 0 45 3 80 8 78 4 -1 35 -19 69 -38z m-2207 5 c0 -3 -9 -19 -19 -36 l-20 -32 -20 34 -21 34 23 11 c19 11 57 3 57 -11z m1093 -9 c-4 -6 -13 -21 -21 -34 l-15 -23 -19 33 c-19 30 -19 33 -3 44 20 15 69 -2 58 -20z m391 21 c17 -13 17 -15 -2 -47 l-21 -33 -20 33 c-19 31 -19 34 -3 46 22 17 24 17 46 1z m1109 -21 c-4 -6 -13 -21 -21 -34 l-15 -23 -19 33 c-19 30 -19 33 -3 44 20 15 69 -2 58 -20z m-2040 -56 c34 -64 37 -76 37 -150 0 -44 -3 -80 -7 -80 -3 0 -14 7 -24 16 -17 15 -19 15 -30 -10 -7 -14 -15 -26 -19 -26 -4 0 -12 12 -19 26 -11 25 -13 25 -30 10 -10 -9 -21 -16 -24 -16 -4 0 -7 36 -7 80 0 74 3 86 38 150 20 38 39 70 42 70 3 0 22 -32 43 -70z m1500 0 c34 -64 37 -76 37 -150 0 -44 -3 -80 -7 -80 -3 0 -14 7 -24 16 -17 15 -19 15 -30 -10 -15 -33 -23 -33 -37 -1 -11 25 -13 25 -37 9 l-25 -16 0 82 c0 76 3 87 38 151 20 38 39 69 42 69 3 0 22 -32 43 -70z m-2103 -15 c0 -4 -7 -19 -15 -35 -14 -26 -18 -28 -35 -18 -11 7 -20 23 -20 35 0 20 5 23 35 23 19 0 35 -2 35 -5z m95 -16 c-1 -12 -10 -28 -20 -35 -16 -12 -20 -10 -37 16 -10 17 -18 33 -18 35 0 3 17 5 38 5 33 0 38 -3 37 -21z m1005 16 c0 -2 -8 -18 -18 -34 -17 -29 -20 -30 -40 -15 -12 8 -22 24 -22 35 0 16 7 19 40 19 22 0 40 -2 40 -5z m90 -18 c0 -12 -9 -28 -20 -35 -17 -10 -21 -8 -35 18 -20 39 -20 40 20 40 30 0 35 -3 35 -23z m310 18 c0 -4 -7 -19 -15 -35 -14 -26 -18 -28 -35 -18 -11 7 -20 23 -20 35 0 20 5 23 35 23 19 0 35 -2 35 -5z m95 -16 c-1 -12 -10 -28 -20 -35 -16 -12 -20 -10 -37 16 -10 17 -18 33 -18 35 0 3 17 5 38 5 33 0 38 -3 37 -21z m1005 16 c0 -2 -8 -18 -18 -34 -17 -29 -20 -30 -40 -15 -12 8 -22 24 -22 35 0 16 7 19 40 19 22 0 40 -2 40 -5z m90 -18 c0 -12 -9 -28 -20 -35 -17 -10 -21 -8 -35 18 -20 39 -20 40 20 40 30 0 35 -3 35 -23z m-2462 6 c-23 -52 -56 -93 -75 -93 -40 0 -29 41 20 72 43 27 61 34 55 21z m719 -23 c30 -18 43 -32 43 -47 0 -17 -6 -23 -22 -23 -20 0 -55 43 -77 94 -4 11 3 7 56 -24z m781 23 c-23 -52 -56 -93 -75 -93 -40 0 -29 41 20 72 43 27 61 34 55 21z m719 -23 c30 -18 43 -32 43 -47 0 -17 -6 -23 -23 -23 -16 0 -30 13 -50 45 -39 66 -39 66 30 25z m-2557 -45 c0 -22 -4 -25 -35 -25 -40 0 -41 2 -18 40 13 23 20 27 35 19 10 -5 18 -21 18 -34z m1410 -20 c0 -3 -16 -5 -35 -5 -29 0 -35 4 -35 21 0 12 8 27 17 34 15 11 20 9 35 -16 10 -16 18 -32 18 -34z m90 18 c0 -20 -5 -23 -35 -23 -40 0 -41 2 -18 40 14 24 19 26 35 17 10 -7 18 -22 18 -34z m1410 -18 c0 -3 -16 -5 -35 -5 -30 0 -35 3 -35 25 0 13 8 28 17 34 14 7 21 3 35 -20 10 -16 18 -32 18 -34z m-2772 9 c11 -24 13 -24 34 -10 32 23 38 20 32 -14 -6 -28 -5 -30 25 -30 35 0 38 -6 15 -31 -15 -17 -15 -19 10 -30 33 -15 33 -23 1 -37 -25 -11 -25 -13 -9 -37 16 -25 16 -25 -16 -25 -30 0 -32 -2 -28 -30 5 -34 1 -36 -30 -14 -21 14 -23 14 -34 -10 -14 -33 -22 -33 -36 -1 -11 25 -13 25 -37 9 -25 -16 -25 -16 -25 15 0 28 -3 31 -31 31 -31 0 -31 0 -15 25 16 24 16 26 -9 37 -32 14 -32 22 0 36 25 11 25 13 9 37 -16 25 -16 25 15 25 28 0 31 3 31 31 0 31 0 31 25 15 24 -16 26 -16 37 9 14 32 22 32 36 -1z m1100 1 c11 -25 13 -25 37 -9 25 16 25 16 25 -15 0 -28 3 -31 31 -31 31 0 31 0 15 -25 -16 -24 -16 -26 9 -37 14 -6 25 -14 25 -18 0 -4 -11 -12 -25 -18 -25 -11 -25 -13 -9 -37 16 -25 16 -25 -15 -25 -28 0 -31 -3 -31 -31 0 -31 0 -31 -25 -15 -24 16 -26 16 -37 -9 -14 -32 -22 -32 -36 1 -11 24 -13 24 -34 10 -32 -23 -38 -20 -31 14 5 28 4 30 -26 30 -35 0 -38 6 -15 31 15 17 15 19 -10 30 -14 7 -26 15 -26 19 0 4 12 12 26 19 25 11 25 13 10 30 -23 25 -20 31 15 31 30 0 31 2 26 30 -7 34 -1 37 31 14 21 -14 23 -14 34 10 14 33 22 33 36 1z m400 -1 c11 -24 13 -24 34 -10 31 22 35 20 30 -14 -4 -28 -2 -30 27 -30 35 0 38 -6 15 -31 -15 -17 -15 -19 10 -30 33 -15 33 -23 1 -37 -25 -11 -25 -13 -9 -37 16 -25 16 -25 -16 -25 -30 0 -32 -2 -28 -30 5 -34 1 -36 -30 -14 -21 14 -23 14 -34 -10 -14 -33 -22 -33 -36 -1 -11 25 -13 25 -37 9 -25 -16 -25 -16 -25 15 0 28 -3 31 -31 31 -31 0 -31 0 -15 25 16 24 16 26 -9 37 -32 14 -32 22 0 36 25 11 25 13 9 37 -16 25 -16 25 15 25 28 0 31 3 31 31 0 31 0 31 25 15 24 -16 26 -16 37 9 14 32 22 32 36 -1z m1098 1 c7 -30 8 -30 39 -9 25 16 25 16 25 -15 0 -28 3 -31 31 -31 31 0 31 0 15 -25 -16 -24 -16 -26 9 -37 14 -6 25 -14 25 -18 0 -4 -11 -12 -25 -18 -25 -11 -25 -13 -9 -37 16 -25 16 -25 -15 -25 -28 0 -31 -3 -31 -31 0 -31 0 -31 -25 -15 -24 16 -26 16 -37 -9 -14 -32 -22 -32 -36 1 -11 24 -13 24 -34 10 -32 -23 -38 -20 -31 14 5 28 4 30 -26 30 -35 0 -38 6 -15 31 15 17 15 19 -10 30 -14 7 -26 15 -26 19 0 4 12 12 26 19 25 11 25 13 10 30 -23 25 -20 31 15 31 30 0 31 2 26 30 -7 34 -1 37 31 14 21 -14 23 -14 34 10 14 33 26 33 34 1z m-2186 -95 c0 -49 -3 -61 -20 -70 -15 -8 -21 -6 -30 10 -8 15 -5 30 17 70 16 27 29 50 31 50 1 0 2 -27 2 -60z m290 -60 c-9 -16 -15 -18 -30 -10 -17 9 -20 21 -20 73 l0 62 30 -53 c25 -42 28 -56 20 -72z m603 90 c17 -28 17 -29 -3 -40 -14 -8 -26 -8 -40 0 -19 10 -19 13 -5 40 19 37 26 37 48 0z m607 -30 c0 -49 -3 -61 -20 -70 -15 -8 -21 -6 -30 10 -8 15 -5 30 17 70 16 27 29 50 31 50 1 0 2 -27 2 -60z m290 -60 c-9 -16 -15 -18 -30 -10 -17 9 -20 21 -20 73 l0 62 30 -53 c25 -42 28 -56 20 -72z m-1990 65 c0 -40 -2 -41 -40 -18 -24 14 -26 19 -17 35 7 10 22 18 34 18 20 0 23 -5 23 -35z m696 18 c10 -15 8 -20 -14 -35 -37 -25 -42 -23 -42 17 0 29 4 35 21 35 12 0 28 -8 35 -17z m804 -18 c0 -40 -2 -41 -40 -18 -24 14 -26 19 -17 35 7 10 22 18 34 18 20 0 23 -5 23 -35z m695 18 c11 -15 9 -20 -16 -35 -39 -24 -39 -24 -39 17 0 29 4 35 21 35 12 0 27 -8 34 -17z m-2105 -43 c8 -14 7 -25 -2 -39 -11 -18 -13 -18 -45 -3 -18 9 -33 19 -33 22 0 5 51 34 67 39 1 1 7 -8 13 -19z m540 -20 c0 -3 -15 -13 -33 -22 -32 -15 -34 -15 -45 3 -9 14 -9 25 -2 39 10 19 12 19 45 3 19 -9 35 -20 35 -23z m960 20 c8 -14 7 -25 -2 -39 -11 -18 -13 -18 -45 -3 -18 9 -33 19 -33 22 0 5 51 34 67 39 1 1 7 -8 13 -19z m540 -20 c0 -3 -15 -13 -33 -22 -32 -15 -34 -15 -45 3 -9 14 -9 25 -2 39 10 19 12 19 45 3 19 -9 35 -20 35 -23z m-2130 -45 c0 -30 -3 -35 -25 -35 -13 0 -28 8 -34 17 -7 14 -3 21 17 34 38 25 42 23 42 -16z m310 -30 c0 -3 -16 -5 -35 -5 -29 0 -35 4 -35 21 0 12 8 27 17 34 15 11 20 9 35 -16 10 -16 18 -32 18 -34z m90 18 c0 -20 -5 -23 -36 -23 -20 0 -34 3 -32 8 29 60 30 61 49 49 11 -7 19 -22 19 -34z m279 29 c25 -15 27 -20 16 -35 -7 -9 -22 -17 -34 -17 -17 0 -21 6 -21 35 0 41 0 41 39 17z m821 -17 c0 -30 -3 -35 -25 -35 -13 0 -28 8 -34 17 -7 14 -3 21 17 34 38 25 42 23 42 -16z m310 -30 c0 -3 -16 -5 -35 -5 -29 0 -35 4 -35 21 0 12 8 27 17 34 15 11 20 9 35 -16 10 -16 18 -32 18 -34z m90 18 c0 -20 -5 -23 -35 -23 -40 0 -41 2 -18 40 14 24 19 26 35 17 10 -7 18 -22 18 -34z m279 29 c25 -15 27 -20 16 -35 -7 -9 -22 -17 -34 -17 -17 0 -21 6 -21 35 0 41 0 41 39 17z m-1088 -2 c19 -11 19 -12 2 -40 -22 -37 -29 -37 -48 0 -14 27 -14 30 3 39 21 13 20 13 43 1z m-953 -35 c11 -25 13 -25 37 -9 25 16 25 16 25 -15 0 -28 3 -31 31 -31 31 0 31 0 15 -25 -16 -24 -16 -26 9 -37 32 -14 32 -22 -1 -36 -24 -11 -24 -13 -10 -34 23 -32 20 -38 -14 -31 -28 5 -30 4 -30 -26 0 -35 -6 -38 -31 -15 -17 15 -19 15 -30 -10 -15 -33 -23 -33 -37 0 -11 24 -13 24 -34 10 -31 -22 -35 -20 -30 15 4 30 3 31 -27 27 -35 -5 -37 -1 -15 30 14 21 14 23 -10 34 -33 14 -33 22 0 37 25 11 25 13 10 30 -23 25 -20 31 15 31 29 0 31 2 27 30 -5 35 -5 35 27 14 24 -15 25 -15 36 10 15 33 23 33 37 1z m400 -1 c11 -24 13 -24 34 -10 31 22 35 20 30 -14 -4 -28 -2 -30 27 -30 35 0 38 -6 15 -31 -15 -17 -15 -19 10 -30 33 -15 33 -23 0 -37 -24 -11 -24 -13 -10 -34 22 -31 20 -35 -15 -30 -30 4 -31 3 -27 -27 5 -35 1 -37 -30 -15 -21 14 -23 14 -34 -10 -14 -33 -22 -33 -37 0 -11 25 -13 25 -30 10 -25 -23 -31 -20 -31 15 0 30 -2 31 -30 26 -34 -7 -37 -1 -14 31 14 21 14 23 -10 34 -33 14 -33 22 -1 36 25 11 25 13 9 37 -16 25 -16 25 15 25 28 0 31 3 31 31 0 31 0 31 25 15 24 -16 26 -16 37 9 14 32 22 32 36 -1z m1098 1 c7 -30 8 -30 39 -9 25 16 25 16 25 -15 0 -28 3 -31 31 -31 31 0 31 0 15 -25 -21 -31 -21 -32 9 -39 32 -8 32 -20 -1 -34 -24 -11 -24 -13 -10 -34 23 -32 20 -38 -14 -31 -28 5 -30 4 -30 -26 0 -30 -13 -41 -25 -21 -10 17 -33 11 -40 -10 -9 -27 -19 -25 -33 6 -11 24 -13 24 -34 10 -31 -22 -35 -20 -30 15 4 30 3 31 -27 27 -35 -5 -37 -1 -15 30 14 21 14 23 -10 34 -33 14 -33 22 0 37 25 11 25 13 10 30 -23 25 -20 31 15 31 29 0 31 2 27 30 -5 34 -1 36 30 14 21 -14 23 -14 34 10 14 33 26 33 34 1z m402 0 c11 -25 13 -25 37 -9 25 16 25 16 25 -15 0 -28 3 -31 30 -31 34 0 37 -6 14 -31 -15 -17 -15 -19 10 -30 33 -15 33 -23 0 -37 -24 -11 -24 -13 -10 -34 22 -31 20 -35 -15 -30 -30 4 -31 3 -27 -27 5 -35 1 -37 -30 -15 -21 14 -23 14 -34 -10 -14 -33 -22 -33 -37 0 -11 25 -13 25 -30 10 -25 -23 -31 -20 -31 15 0 30 -2 31 -30 26 -34 -7 -37 -1 -14 31 14 21 14 23 -10 34 -33 14 -33 22 -1 36 25 11 25 13 9 37 -16 25 -16 25 15 25 28 0 31 3 31 31 0 31 0 31 25 15 24 -16 26 -16 37 9 6 14 14 25 18 25 4 0 12 -11 18 -25z m-1695 -65 c17 -28 17 -29 -3 -40 -14 -8 -26 -8 -40 0 -20 11 -20 12 -3 40 9 17 20 30 23 30 3 0 14 -13 23 -30z m1500 0 c17 -28 17 -29 -3 -40 -14 -8 -26 -8 -40 0 -20 11 -20 12 -3 40 9 17 20 30 23 30 3 0 14 -13 23 -30z m-2193 -15 c0 -13 -8 -29 -18 -34 -15 -8 -22 -4 -35 19 -23 38 -22 40 18 40 31 0 35 -3 35 -25z m296 8 c10 -15 8 -20 -14 -35 -37 -25 -42 -23 -42 17 0 29 4 35 21 35 12 0 28 -8 35 -17z m804 -18 c0 -40 -2 -41 -40 -18 -24 14 -26 19 -17 35 7 10 22 18 34 18 20 0 23 -5 23 -35z m310 29 c0 -3 -8 -19 -17 -34 -13 -23 -20 -27 -35 -19 -10 5 -18 21 -18 34 0 22 4 25 35 25 19 0 35 -3 35 -6z m90 -15 c0 -12 -8 -28 -17 -35 -15 -10 -20 -8 -35 14 -25 37 -23 42 17 42 29 0 35 -4 35 -21z m296 4 c10 -15 8 -20 -14 -35 -37 -25 -42 -23 -42 17 0 29 4 35 21 35 12 0 28 -8 35 -17z m804 -18 c0 -40 -2 -41 -40 -18 -24 14 -26 19 -17 35 7 10 22 18 34 18 20 0 23 -5 23 -35z m310 30 c0 -2 -8 -18 -18 -34 -14 -23 -21 -27 -35 -20 -9 6 -17 21 -17 34 0 22 5 25 35 25 19 0 35 -2 35 -5z m-2820 -55 c8 -16 5 -30 -20 -72 l-30 -53 0 62 c0 49 4 64 18 72 22 13 20 14 32 -9z m118 -8 l23 -15 -31 -18 c-38 -23 -37 -23 -50 1 -12 22 7 63 25 53 5 -4 20 -13 33 -21z m982 -32 c-13 -24 -12 -24 -50 -1 l-31 18 33 21 c31 20 32 20 45 1 11 -14 11 -24 3 -39z m110 -23 l0 -62 -31 52 c-25 43 -28 56 -19 73 9 16 15 18 30 10 17 -9 20 -21 20 -73z m290 63 c8 -16 5 -30 -20 -72 l-30 -53 0 62 c0 49 4 64 18 72 22 13 20 14 32 -9z m123 -12 c17 -13 16 -15 -17 -31 -34 -16 -36 -16 -46 3 -8 14 -7 25 2 39 12 20 22 18 61 -11z m977 -28 c-13 -24 -12 -24 -50 -1 l-31 18 33 21 c31 20 32 20 45 1 11 -14 11 -24 3 -39z m110 -23 l0 -62 -31 52 c-25 43 -28 56 -19 73 9 16 15 18 30 10 17 -9 20 -21 20 -73z m-1361 27 c11 -25 13 -25 30 -10 10 9 21 16 24 16 4 0 7 -36 7 -80 0 -74 -3 -86 -37 -150 -21 -38 -40 -70 -43 -70 -3 0 -22 31 -42 69 -35 64 -38 75 -38 151 l0 82 25 -16 c24 -16 26 -16 37 9 14 32 22 32 37 -1z m-1159 -12 c26 -17 28 -21 16 -37 -7 -10 -23 -19 -35 -20 -18 -1 -21 4 -21 37 0 21 2 38 5 38 2 0 18 -8 35 -18z m820 -20 c0 -33 -3 -38 -21 -37 -12 1 -28 10 -35 20 -12 16 -11 20 14 36 39 25 42 23 42 -19z m680 20 c26 -17 28 -21 16 -37 -7 -10 -23 -19 -35 -20 -18 -1 -21 4 -21 37 0 21 2 38 5 38 2 0 18 -8 35 -18z m820 -20 c0 -33 -3 -38 -21 -37 -12 1 -28 10 -35 20 -12 16 -11 20 14 36 39 25 42 23 42 -19z m-1911 16 c18 -11 18 -14 3 -45 -9 -18 -19 -33 -22 -33 -3 0 -13 15 -22 33 -15 31 -15 34 1 45 21 14 18 14 40 0z m1500 0 c18 -11 18 -14 3 -45 -9 -18 -19 -33 -22 -33 -3 0 -13 15 -22 33 -15 31 -15 34 1 45 21 14 18 14 40 0z m-2050 -34 c11 -25 12 -25 36 -10 25 16 25 16 25 -14 0 -27 3 -30 31 -30 35 0 36 4 -14 -81 -32 -53 -49 -70 -100 -99 -34 -19 -65 -36 -69 -38 -5 -2 -8 33 -8 78 0 74 3 86 38 150 20 38 40 70 43 70 3 0 11 -12 18 -26z m1124 -47 c34 -65 37 -79 37 -149 0 -43 -2 -78 -4 -78 -2 0 -34 18 -71 39 -57 34 -72 49 -106 106 -21 37 -39 69 -39 71 0 2 14 4 30 4 27 0 30 3 30 30 0 30 0 30 25 14 24 -15 25 -15 36 10 7 14 15 26 18 26 3 0 23 -33 44 -73z m376 47 c11 -25 12 -25 36 -10 25 16 25 16 25 -14 0 -27 3 -30 31 -30 17 0 29 -3 27 -7 -1 -5 -20 -37 -41 -73 -32 -54 -49 -71 -100 -100 -34 -19 -65 -36 -69 -38 -5 -2 -8 33 -8 78 0 74 3 86 38 150 20 38 40 70 43 70 3 0 11 -12 18 -26z m1124 -47 c34 -65 37 -79 37 -149 0 -43 -2 -78 -4 -78 -2 0 -34 18 -71 39 -57 34 -72 49 -106 106 -21 37 -39 69 -39 71 0 2 14 4 30 4 27 0 30 3 30 30 0 30 0 30 25 14 24 -15 25 -15 36 10 7 14 15 26 18 26 3 0 23 -33 44 -73z m-2413 -29 c-1 -16 -14 -31 -47 -51 -25 -15 -47 -26 -50 -24 -2 3 9 25 24 50 20 33 35 46 51 47 16 0 22 -6 22 -22z m310 17 c0 -2 -8 -18 -18 -34 -15 -25 -20 -27 -35 -16 -9 7 -17 22 -17 34 0 17 6 21 35 21 19 0 35 -2 35 -5z m90 -16 c0 -12 -8 -27 -17 -34 -15 -11 -20 -9 -35 16 -24 39 -24 39 17 39 29 0 35 -4 35 -21z m313 -26 c15 -25 26 -47 24 -50 -3 -2 -25 9 -50 24 -33 20 -46 35 -47 51 0 16 6 22 23 22 15 -1 30 -14 50 -47z m787 25 c-1 -16 -14 -31 -47 -51 -25 -15 -47 -26 -50 -24 -2 3 9 25 24 50 20 33 35 46 51 47 16 0 22 -6 22 -22z m310 17 c0 -2 -8 -18 -18 -34 -14 -23 -21 -27 -35 -20 -9 6 -17 21 -17 34 0 22 5 25 35 25 19 0 35 -2 35 -5z m90 -16 c0 -12 -8 -28 -17 -35 -15 -10 -20 -8 -35 14 -25 37 -23 42 17 42 29 0 35 -4 35 -21z m313 -26 c15 -25 26 -47 24 -50 -3 -2 -25 9 -51 24 -33 20 -46 34 -46 50 0 17 6 23 23 23 15 -1 30 -14 50 -47z m-2103 -58 c0 -3 -17 -5 -38 -5 -33 0 -38 3 -37 21 1 12 10 28 20 35 16 12 20 10 37 -16 10 -17 18 -33 18 -35z m90 18 c0 -20 -5 -23 -35 -23 -40 0 -40 1 -20 40 14 26 18 28 35 18 11 -7 20 -23 20 -35z m310 -15 c0 -5 -16 -8 -35 -8 -29 0 -35 4 -35 21 0 12 8 28 17 35 15 10 20 8 35 -14 10 -15 18 -30 18 -34z m95 14 c1 -19 -3 -22 -38 -22 -21 0 -37 3 -35 8 31 63 31 63 51 49 11 -7 21 -23 22 -35z m1005 -17 c0 -3 -18 -5 -40 -5 -33 0 -40 3 -40 19 0 11 10 27 22 35 20 15 23 14 40 -15 10 -16 18 -32 18 -34z m90 18 c0 -20 -5 -23 -35 -23 -40 0 -40 1 -20 40 14 26 18 28 35 18 11 -7 20 -23 20 -35z m310 -15 c0 -5 -16 -8 -35 -8 -29 0 -35 4 -35 21 0 12 8 28 17 35 15 10 20 8 35 -14 10 -15 18 -30 18 -34z m90 15 c0 -20 -5 -23 -36 -23 -20 0 -34 3 -32 8 29 60 30 61 49 49 11 -7 19 -22 19 -34z m-1762 -8 c11 -25 13 -25 37 -9 25 16 25 16 25 -16 0 -30 2 -32 30 -28 34 5 36 1 14 -30 -14 -21 -14 -23 10 -34 33 -14 33 -22 1 -36 -25 -11 -25 -13 -9 -37 16 -25 16 -25 -15 -25 -28 0 -31 -3 -31 -31 0 -31 0 -31 -25 -15 -24 16 -26 16 -37 -9 -6 -14 -14 -25 -18 -25 -4 0 -12 11 -18 25 -11 25 -13 25 -37 9 -25 -16 -25 -16 -25 15 0 28 -3 31 -31 31 -31 0 -31 0 -15 25 16 24 16 26 -9 37 -32 14 -32 22 1 36 24 11 24 13 10 34 -22 31 -20 35 14 30 28 -4 30 -2 30 28 0 32 0 32 25 16 24 -16 26 -16 37 9 6 14 14 25 18 25 4 0 12 -11 18 -25z m1500 0 c11 -25 13 -25 37 -9 25 16 25 16 25 -16 0 -30 2 -32 30 -28 34 5 36 1 14 -30 -14 -21 -14 -23 10 -34 33 -14 33 -22 1 -36 -25 -11 -25 -13 -9 -37 16 -25 16 -25 -15 -25 -28 0 -31 -3 -31 -31 0 -31 0 -31 -25 -15 -24 16 -26 16 -37 -9 -6 -14 -14 -25 -18 -25 -4 0 -12 11 -18 25 -11 25 -13 25 -37 9 -25 -16 -25 -16 -25 15 0 28 -3 31 -31 31 -31 0 -31 0 -15 25 16 24 16 26 -9 37 -32 14 -32 22 1 36 24 11 24 13 10 34 -22 31 -20 35 14 30 28 -4 30 -2 30 28 0 32 0 32 25 16 24 -16 26 -16 37 9 6 14 14 25 18 25 4 0 12 -11 18 -25z m-1838 -25 c0 -27 3 -30 30 -30 30 0 30 0 14 -25 -15 -24 -15 -25 10 -36 14 -7 26 -15 26 -18 0 -3 -33 -23 -73 -44 -65 -34 -79 -37 -149 -37 -43 0 -78 2 -78 4 0 2 18 34 39 71 33 56 50 73 103 105 35 21 66 39 71 39 4 1 7 -12 7 -29z m721 -13 c53 -32 70 -49 99 -100 19 -34 37 -65 38 -69 2 -5 -32 -8 -75 -8 -71 0 -84 3 -150 37 -40 21 -73 41 -73 44 0 3 12 11 26 18 25 11 25 12 10 36 -16 25 -16 25 14 25 27 0 30 3 30 31 0 35 -4 36 81 -14z m779 13 c0 -27 3 -30 30 -30 30 0 30 0 14 -25 -15 -24 -15 -25 10 -36 25 -12 35 -29 17 -29 -6 0 -37 -16 -70 -35 -55 -32 -66 -35 -140 -35 -45 0 -81 2 -81 4 0 2 18 34 39 71 33 56 50 73 103 105 35 21 66 39 71 39 4 1 7 -12 7 -29z m715 -9 c57 -34 72 -49 106 -106 21 -37 39 -69 39 -71 0 -2 -36 -4 -80 -4 -74 0 -86 3 -150 38 -38 20 -70 40 -70 43 0 3 12 11 26 18 25 11 25 12 10 36 -21 32 -21 32 14 27 28 -4 30 -2 30 27 0 17 2 31 4 31 2 0 34 -18 71 -39z m-2077 -23 c20 -32 20 -32 1 -45 -14 -11 -24 -11 -39 -3 -12 6 -20 14 -18 18 2 4 10 19 17 35 8 15 15 27 17 27 1 0 11 -14 22 -32z m422 -33 c0 -2 -9 -9 -20 -15 -15 -8 -25 -8 -39 3 -19 13 -19 14 1 45 l21 33 18 -31 c11 -17 19 -32 19 -35z m1078 33 c20 -32 20 -32 1 -45 -14 -11 -24 -11 -39 -3 -12 6 -20 14 -18 18 2 4 10 19 17 35 8 15 15 27 17 27 1 0 11 -14 22 -32z m422 -33 c0 -2 -9 -9 -20 -15 -15 -8 -25 -8 -39 3 -19 13 -19 14 1 45 l21 33 18 -31 c11 -17 19 -32 19 -35z m-2408 -5 c-3 -46 -8 -63 -22 -70 -15 -8 -21 -6 -30 10 -8 15 -5 30 17 70 16 27 30 50 33 50 3 0 3 -27 2 -60z m1370 9 c23 -44 25 -54 14 -70 -22 -32 -44 -3 -48 64 -2 31 -1 57 2 57 3 0 17 -23 32 -51z m130 -9 c-3 -46 -8 -63 -22 -70 -15 -8 -21 -6 -30 10 -8 15 -5 30 17 70 16 27 30 50 33 50 3 0 3 -27 2 -60z m1370 9 c23 -44 25 -54 14 -70 -22 -31 -43 -3 -48 64 -3 31 -2 57 1 57 3 0 18 -23 33 -51z m-2734 -36 c-23 -52 -56 -93 -75 -93 -40 0 -29 41 20 72 43 27 61 34 55 21z m1119 -23 c30 -18 43 -32 43 -47 0 -17 -6 -23 -22 -23 -20 0 -55 43 -77 94 -4 11 3 7 56 -24z m381 23 c-23 -52 -56 -93 -75 -93 -40 0 -29 41 20 72 43 27 61 34 55 21z m1119 -23 c30 -18 43 -32 43 -47 0 -17 -6 -23 -22 -23 -16 0 -30 13 -48 43 -41 69 -42 68 27 27z m-2266 -20 c15 -9 17 -15 9 -30 -9 -17 -21 -20 -73 -20 l-62 0 50 30 c59 34 52 32 76 20z m432 -20 l52 -30 -62 0 c-52 0 -64 3 -73 19 -8 16 -6 22 7 30 23 13 16 15 76 -19z m1068 20 c15 -9 17 -15 9 -30 -9 -17 -21 -20 -73 -20 l-62 0 50 30 c59 34 52 32 76 20z m432 -20 l52 -30 -62 0 c-52 0 -64 3 -73 19 -8 16 -6 22 7 30 23 13 16 15 76 -19z m-985 -15 c11 -25 13 -25 37 -9 25 16 25 16 25 -15 0 -28 3 -31 31 -31 31 0 31 0 15 -25 -16 -24 -16 -26 9 -37 14 -6 25 -14 25 -18 0 -4 -11 -12 -25 -18 -25 -11 -25 -13 -9 -37 16 -25 16 -25 -15 -25 -28 0 -31 -3 -31 -31 0 -31 0 -31 -25 -15 -24 16 -26 16 -37 -9 -6 -14 -14 -25 -18 -25 -4 0 -12 11 -18 25 -11 25 -13 25 -37 9 -25 -16 -25 -16 -25 15 0 28 -3 31 -31 31 -31 0 -31 0 -15 25 16 24 16 26 -9 37 -32 14 -32 22 0 36 25 11 25 13 9 37 -16 25 -16 25 15 25 28 0 31 3 31 31 0 31 0 31 25 15 24 -16 26 -16 37 9 6 14 14 25 18 25 4 0 12 -11 18 -25z m-1219 -58 c-2 -2 -25 -16 -52 -31 -42 -24 -50 -25 -67 -13 -33 23 -5 46 60 49 53 3 68 2 59 -5z m1028 -14 c10 -14 9 -19 -7 -30 -17 -12 -25 -10 -69 14 -28 16 -51 30 -51 33 0 3 26 4 57 2 38 -2 62 -9 70 -19z m472 14 c-2 -2 -26 -16 -53 -30 -41 -23 -51 -25 -67 -14 -32 23 -3 46 61 49 53 3 68 2 59 -5z m1028 -14 c10 -14 9 -19 -7 -30 -17 -12 -25 -10 -69 14 -28 16 -51 30 -51 33 0 3 26 4 57 2 38 -2 62 -9 70 -19z m-2301 -8 c-16 -24 -16 -26 9 -37 14 -6 25 -14 25 -18 0 -4 -11 -12 -25 -18 -25 -11 -25 -13 -9 -37 l16 -25 -82 0 c-76 0 -87 3 -151 38 -38 20 -69 39 -69 42 0 3 31 22 68 42 62 35 73 37 151 38 l83 0 -16 -25z m104 -11 c0 -20 -3 -34 -7 -32 -61 29 -62 30 -50 49 7 11 22 19 34 19 20 0 23 -5 23 -36z m296 19 c10 -15 8 -20 -14 -35 -37 -25 -42 -23 -42 17 0 29 4 35 21 35 12 0 28 -8 35 -17z m264 -20 c38 -21 70 -40 70 -43 0 -3 -32 -22 -70 -42 -64 -35 -76 -38 -151 -38 l-81 0 16 25 c16 24 16 26 -9 37 -14 6 -25 14 -25 18 0 4 11 12 25 18 25 11 25 13 9 37 l-16 25 81 0 c75 0 87 -3 151 -37z m836 12 c-16 -24 -16 -26 9 -37 14 -6 25 -14 25 -18 0 -4 -11 -12 -25 -18 -25 -11 -25 -13 -9 -37 l16 -25 -82 0 c-76 0 -87 3 -151 38 -38 20 -69 39 -69 42 0 3 31 22 68 42 62 34 73 37 151 38 l83 0 -16 -25z m104 -10 c0 -40 -2 -41 -40 -18 -23 13 -27 20 -19 35 5 10 21 18 34 18 22 0 25 -4 25 -35z m295 18 c11 -15 9 -20 -16 -35 -39 -24 -39 -24 -39 17 0 29 4 35 21 35 12 0 27 -8 34 -17z m265 -20 c38 -21 70 -40 70 -43 0 -3 -31 -22 -69 -42 -64 -35 -75 -38 -151 -38 l-82 0 16 25 c16 24 16 26 -9 37 -14 6 -25 14 -25 18 0 4 11 12 25 18 25 11 25 13 9 37 l-16 25 81 0 c75 0 87 -3 151 -37z m-1970 -23 c8 -14 8 -26 0 -40 -10 -19 -13 -19 -40 -5 -17 9 -30 20 -30 25 0 7 43 37 57 40 1 0 7 -9 13 -20z m130 -20 c0 -5 -13 -16 -30 -25 -27 -14 -30 -14 -40 5 -8 14 -8 26 0 40 10 19 13 19 40 5 17 -9 30 -20 30 -25z m1370 20 c8 -14 8 -26 0 -40 -10 -19 -13 -19 -40 -5 -17 9 -30 20 -30 25 0 7 43 37 57 40 1 0 7 -9 13 -20z m130 -22 c0 -4 -13 -14 -30 -23 -27 -14 -30 -14 -40 5 -8 14 -8 26 0 40 11 20 12 20 40 3 17 -9 30 -21 30 -25z m-1720 -43 c0 -29 -4 -35 -21 -35 -12 0 -28 8 -35 17 -10 15 -8 20 14 35 37 25 42 23 42 -17z m282 17 c22 -15 24 -20 14 -35 -7 -9 -23 -17 -35 -17 -17 0 -21 6 -21 35 0 40 5 42 42 17z m1218 -17 c0 -30 -3 -35 -25 -35 -13 0 -28 8 -34 17 -7 14 -4 21 17 35 37 25 42 23 42 -17z m279 17 c25 -15 27 -20 16 -35 -7 -9 -22 -17 -34 -17 -17 0 -21 6 -21 35 0 41 0 41 39 17z m-2156 -22 c26 -13 47 -26 47 -29 0 -4 -26 -5 -57 -3 -66 4 -95 25 -65 48 9 7 19 12 22 11 3 -1 26 -13 53 -27z m1069 16 c30 -23 1 -44 -65 -48 -31 -2 -57 -1 -57 2 0 5 91 59 100 59 3 0 13 -6 22 -13z m428 -13 c27 -16 50 -30 50 -33 0 -3 -27 -3 -60 -2 -46 3 -63 8 -70 22 -8 15 -6 21 7 29 10 6 19 11 20 11 2 0 25 -12 53 -27z m1072 13 c30 -23 1 -44 -65 -48 -31 -2 -57 -1 -57 2 0 5 91 59 100 59 3 0 13 -6 22 -13z m-2054 -31 c11 -25 13 -25 37 -9 25 16 25 16 25 -15 0 -28 3 -31 31 -31 31 0 31 0 15 -25 -16 -24 -16 -26 9 -37 32 -14 32 -22 -1 -36 -24 -11 -24 -13 -10 -34 22 -31 20 -35 -14 -30 -28 4 -30 2 -30 -28 0 -32 0 -32 -25 -16 -24 16 -26 16 -37 -9 -6 -14 -14 -25 -18 -25 -4 0 -12 11 -18 25 -11 25 -13 25 -37 9 -25 -16 -25 -16 -25 16 0 30 -2 32 -30 28 -34 -5 -36 -1 -14 30 14 21 14 23 -10 34 -33 14 -33 22 -1 36 25 11 25 13 9 37 -16 25 -16 25 15 25 28 0 31 3 31 31 0 31 0 31 25 15 24 -16 26 -16 37 9 6 14 14 25 18 25 4 0 12 -11 18 -25z m1500 0 c11 -25 13 -25 37 -9 25 16 25 16 25 -15 0 -28 3 -31 31 -31 31 0 31 0 15 -25 -16 -24 -16 -26 9 -37 32 -14 32 -22 -1 -36 -24 -11 -24 -13 -10 -34 22 -31 20 -35 -14 -30 -28 4 -30 2 -30 -28 0 -32 0 -32 -25 -16 -24 16 -26 16 -37 -9 -6 -14 -14 -25 -18 -25 -4 0 -12 11 -18 25 -11 25 -13 25 -37 9 -25 -16 -25 -16 -25 16 0 30 -2 32 -30 28 -34 -5 -36 -1 -14 30 14 21 14 23 -10 34 -33 14 -33 22 -1 36 25 11 25 13 9 37 -16 25 -16 25 15 25 28 0 31 3 31 31 0 31 0 31 25 15 24 -16 26 -16 37 9 6 14 14 25 18 25 4 0 12 -11 18 -25z m-1219 -58 c-2 -2 -25 -16 -51 -31 -39 -21 -52 -25 -68 -16 -16 9 -18 15 -10 30 8 15 23 20 68 22 55 3 70 2 61 -5z m-856 -44 c15 -25 26 -47 24 -50 -3 -2 -25 9 -50 24 -33 20 -46 35 -47 51 0 16 6 22 23 22 15 -1 30 -14 50 -47z m244 10 c40 -21 73 -41 73 -44 0 -3 -12 -11 -26 -18 -25 -11 -25 -12 -10 -36 16 -25 16 -25 -14 -25 -27 0 -30 -3 -30 -30 0 -16 -2 -30 -4 -30 -2 0 -34 18 -71 39 -57 34 -72 49 -106 106 -21 37 -39 69 -39 71 0 2 35 4 78 4 70 0 84 -3 149 -37z m143 17 c8 -15 6 -21 -10 -30 -16 -8 -30 -5 -72 20 l-53 30 62 0 c52 0 64 -3 73 -20z m708 13 c-1 -5 -19 -36 -38 -70 -29 -51 -46 -68 -99 -100 -85 -50 -81 -49 -81 -14 0 28 -3 31 -30 31 -30 0 -30 0 -14 25 15 24 15 25 -10 36 -14 7 -26 15 -26 18 0 3 31 22 68 43 61 33 74 36 150 37 46 1 82 -2 80 -6z m92 -15 c-1 -16 -14 -31 -47 -51 -25 -15 -47 -26 -50 -24 -2 3 9 25 24 50 20 33 35 46 51 47 16 0 22 -6 22 -22z m313 -25 c15 -25 26 -47 24 -50 -3 -2 -25 9 -50 24 -33 20 -46 35 -47 51 0 16 6 22 23 22 15 -1 30 -14 50 -47z m238 12 c33 -19 64 -35 70 -35 18 0 8 -17 -17 -29 -25 -11 -25 -12 -10 -36 16 -25 16 -25 -14 -25 -27 0 -30 -3 -30 -30 0 -16 -2 -30 -4 -30 -2 0 -34 18 -71 39 -57 34 -72 49 -106 106 -21 37 -39 69 -39 71 0 2 36 4 81 4 74 0 85 -3 140 -35z m149 15 c8 -15 6 -21 -10 -30 -16 -8 -30 -5 -72 20 l-53 30 62 0 c52 0 64 -3 73 -20z m422 -10 c-42 -25 -56 -28 -72 -20 -16 9 -18 15 -10 30 9 17 21 20 73 20 l62 0 -53 -30z m288 26 c0 -2 -18 -34 -39 -71 -34 -57 -49 -72 -106 -106 -37 -21 -69 -39 -71 -39 -2 0 -4 14 -4 31 0 29 -2 31 -30 27 -35 -5 -35 -5 -14 27 15 24 15 25 -10 36 -14 7 -26 15 -26 18 0 3 31 22 68 43 61 33 74 36 150 37 45 1 82 -1 82 -3z m90 -18 c-1 -16 -14 -31 -47 -51 -25 -15 -47 -26 -50 -24 -2 3 9 25 24 50 20 33 35 46 51 47 16 0 22 -6 22 -22z m-2798 -98 c1 -33 1 -60 -2 -60 -3 0 -17 23 -33 50 -22 40 -25 55 -17 70 9 16 15 18 30 10 14 -7 19 -24 22 -70z m1370 -9 c-15 -28 -29 -51 -32 -51 -3 0 -4 26 -2 57 4 67 26 96 48 64 11 -16 9 -26 -14 -70z m130 9 c1 -33 1 -60 -2 -60 -3 0 -17 23 -33 50 -22 40 -25 55 -17 70 9 16 15 18 30 10 14 -7 19 -24 22 -70z m1370 -9 c-15 -28 -29 -51 -32 -51 -3 0 -4 26 -2 57 4 67 26 96 48 64 11 -16 9 -26 -14 -70z m-2757 0 c57 -34 72 -49 106 -106 21 -37 39 -69 39 -71 0 -2 -13 -4 -30 -4 -27 0 -30 -3 -30 -30 0 -30 0 -30 -25 -14 -24 15 -25 15 -36 -10 -7 -14 -15 -26 -18 -26 -3 0 -23 33 -44 73 -34 65 -37 79 -37 150 0 42 2 77 4 77 2 0 34 -18 71 -39z m1185 -42 c0 -74 -3 -85 -35 -140 -19 -33 -35 -64 -35 -70 0 -18 -17 -8 -29 17 -11 25 -12 25 -36 10 -32 -21 -32 -21 -27 14 4 28 2 30 -27 30 -17 0 -31 2 -31 4 0 2 18 34 39 71 33 56 50 73 103 105 35 21 66 39 71 39 4 1 7 -35 7 -80z m317 41 c51 -29 68 -46 100 -100 21 -36 40 -68 41 -72 2 -5 -10 -8 -27 -8 -28 0 -31 -3 -31 -30 0 -30 0 -30 -25 -14 -24 15 -25 15 -36 -10 -7 -14 -15 -26 -18 -26 -3 0 -23 32 -43 70 -35 64 -38 76 -38 150 0 45 3 80 8 78 4 -1 35 -19 69 -38z m1183 -41 c0 -74 -3 -85 -35 -140 -19 -33 -35 -64 -35 -70 0 -18 -17 -8 -29 17 -11 25 -12 25 -36 10 -25 -16 -25 -16 -25 14 0 27 -3 30 -30 30 -16 0 -30 2 -30 4 0 2 18 34 39 71 33 56 50 73 103 105 35 21 66 39 71 39 4 1 7 -35 7 -80z m-2308 58 c15 -12 15 -15 -4 -46 l-21 -32 -19 32 c-19 31 -19 33 -2 46 22 16 25 16 46 0z m402 0 c17 -13 17 -15 -2 -46 l-19 -32 -21 32 c-19 31 -19 34 -4 46 21 16 24 16 46 0z m1109 -21 c-4 -6 -13 -21 -21 -34 l-15 -23 -19 33 c-19 30 -19 33 -3 44 20 15 69 -2 58 -20z m391 21 c17 -13 17 -15 -2 -46 l-19 -32 -21 32 c-19 31 -19 34 -4 46 21 16 24 16 46 0z m-931 -77 c34 -64 37 -76 37 -150 0 -44 -3 -80 -7 -80 -3 0 -14 7 -24 16 -17 15 -19 15 -30 -10 -15 -33 -23 -33 -37 -1 -11 25 -13 25 -37 9 l-25 -16 0 82 c0 76 3 87 38 151 20 38 39 69 42 69 3 0 22 -32 43 -70z m-1003 -15 c0 -2 -8 -18 -18 -35 -17 -26 -21 -28 -37 -16 -10 7 -19 23 -20 35 -1 18 4 21 37 21 21 0 38 -2 38 -5z m90 -18 c0 -12 -9 -28 -20 -35 -17 -10 -21 -8 -35 18 -20 39 -20 40 20 40 30 0 35 -3 35 -23z m310 16 c0 -5 -8 -20 -18 -35 -15 -22 -20 -24 -35 -14 -9 7 -17 23 -17 35 0 17 6 21 35 21 19 0 35 -3 35 -7z m95 -14 c-1 -12 -10 -28 -20 -35 -16 -12 -20 -10 -37 16 -10 17 -18 33 -18 35 0 3 17 5 38 5 33 0 38 -3 37 -21z m1005 16 c0 -2 -8 -18 -18 -34 -17 -29 -20 -30 -40 -15 -12 8 -22 24 -22 35 0 16 7 19 40 19 22 0 40 -2 40 -5z m90 -18 c0 -12 -9 -28 -20 -35 -17 -10 -21 -8 -35 18 -20 39 -20 40 20 40 30 0 35 -3 35 -23z m310 16 c0 -5 -8 -20 -18 -35 -15 -22 -20 -24 -35 -14 -9 7 -17 23 -17 35 0 17 6 21 35 21 19 0 35 -3 35 -7z m90 -14 c0 -12 -8 -27 -17 -34 -15 -11 -20 -9 -35 16 -24 39 -24 39 17 39 29 0 35 -4 35 -21z m-2145 -16 c32 -20 45 -34 45 -50 0 -17 -6 -23 -22 -23 -16 0 -30 13 -48 43 -41 69 -41 69 25 30z m783 20 c-23 -52 -56 -93 -75 -93 -41 0 -29 41 20 72 43 27 61 34 55 21z m719 -23 c30 -18 43 -32 43 -47 0 -17 -6 -23 -22 -23 -20 0 -55 43 -77 94 -4 11 3 7 56 -24z m781 23 c-23 -52 -56 -93 -75 -93 -41 0 -29 41 20 72 43 27 61 34 55 21z m-1928 -88 c0 -3 -16 -5 -35 -5 -29 0 -35 4 -35 21 0 12 8 27 17 34 15 11 20 9 35 -16 10 -16 18 -32 18 -34z m90 18 c0 -20 -5 -23 -36 -23 -20 0 -34 3 -32 8 29 60 30 61 49 49 11 -7 19 -22 19 -34z m1410 -18 c0 -3 -16 -5 -35 -5 -30 0 -35 3 -35 25 0 13 8 28 17 34 14 7 21 3 35 -20 10 -16 18 -32 18 -34z m90 18 c0 -20 -5 -23 -35 -23 -40 0 -41 2 -18 40 14 24 19 26 35 17 10 -7 18 -22 18 -34z m-1761 -9 c11 -25 13 -25 30 -10 25 23 31 20 31 -15 0 -30 2 -31 30 -25 34 6 37 0 14 -32 -14 -21 -14 -23 10 -34 33 -14 33 -22 1 -36 -25 -11 -25 -13 -9 -37 16 -25 16 -25 -15 -25 -28 0 -31 -3 -31 -31 0 -31 0 -31 -25 -15 -31 21 -32 21 -39 -9 -8 -32 -20 -32 -35 1 -11 25 -12 25 -36 10 -32 -21 -32 -21 -27 14 4 28 2 30 -27 30 -35 0 -38 6 -15 31 15 17 15 19 -10 30 -33 15 -33 23 0 37 24 11 24 13 10 34 -22 31 -20 35 15 30 30 -4 31 -3 27 27 -5 35 -1 37 30 15 21 -14 23 -14 34 10 14 33 22 33 37 0z m399 0 c11 -24 13 -24 34 -10 31 22 35 20 30 -15 -4 -30 -3 -31 27 -27 35 5 37 1 15 -30 -14 -21 -14 -23 10 -34 33 -14 33 -22 0 -37 -25 -11 -25 -13 -10 -30 23 -25 20 -31 -15 -31 -29 0 -31 -2 -27 -30 5 -34 1 -36 -30 -14 -21 14 -23 14 -34 -10 -14 -33 -22 -33 -36 -1 -11 25 -13 25 -37 9 -25 -16 -25 -16 -25 15 0 28 -3 31 -31 31 -31 0 -31 0 -15 25 16 24 16 26 -9 37 -32 14 -32 22 1 36 24 11 24 13 10 34 -23 32 -20 38 14 32 28 -6 30 -5 30 25 0 35 6 38 31 15 17 -15 19 -15 30 10 15 33 23 33 37 0z m1101 0 c11 -25 13 -25 30 -10 25 23 31 20 31 -15 0 -30 2 -31 30 -25 34 6 37 0 14 -32 -14 -21 -14 -23 10 -34 33 -14 33 -22 1 -36 -25 -11 -25 -13 -9 -37 16 -25 16 -25 -15 -25 -28 0 -31 -3 -31 -31 0 -31 0 -31 -25 -15 -31 21 -32 21 -39 -9 -8 -32 -20 -32 -34 1 -11 24 -13 24 -34 10 -31 -22 -35 -20 -30 14 4 28 2 30 -27 30 -35 0 -38 6 -15 31 15 17 15 19 -10 30 -33 15 -33 23 0 37 24 11 24 13 10 34 -22 31 -20 35 15 30 30 -4 31 -3 27 27 -5 35 -1 37 30 15 21 -14 23 -14 34 10 14 33 22 33 37 0z m399 0 c11 -24 13 -24 34 -10 31 22 35 20 30 -15 -4 -30 -3 -31 27 -27 35 5 37 1 15 -30 -14 -21 -14 -23 10 -34 33 -14 33 -22 0 -37 -25 -11 -25 -13 -10 -30 23 -25 20 -31 -15 -31 -29 0 -31 -2 -27 -30 5 -34 1 -36 -30 -14 -21 14 -23 14 -34 -10 -14 -33 -22 -33 -36 -1 -11 25 -13 25 -37 9 -25 -16 -25 -16 -25 15 0 28 -3 31 -31 31 -31 0 -31 0 -15 25 16 24 16 26 -9 37 -32 14 -32 22 1 36 24 11 24 13 10 34 -23 32 -20 38 14 32 28 -6 30 -5 30 25 0 35 6 38 31 15 17 -15 19 -15 30 10 15 33 23 33 37 0z m-1696 -57 c15 -31 15 -34 -3 -45 -15 -9 -23 -9 -38 0 -18 11 -18 14 -3 45 9 18 19 33 22 33 3 0 13 -15 22 -33z m1500 0 c15 -31 15 -34 -3 -45 -15 -9 -23 -9 -38 0 -18 11 -18 14 -3 45 9 18 19 33 22 33 3 0 13 -15 22 -33z m-2102 -97 c-9 -16 -15 -18 -30 -10 -17 9 -20 21 -20 73 l0 62 30 -53 c25 -42 28 -56 20 -72z m1210 60 c0 -49 -3 -61 -20 -70 -15 -8 -21 -6 -30 10 -8 15 -5 30 17 70 16 27 29 50 31 50 1 0 2 -27 2 -60z m290 -60 c-9 -16 -15 -18 -30 -10 -17 9 -20 21 -20 73 l0 62 30 -53 c25 -42 28 -56 20 -72z m1210 60 c0 -49 -3 -61 -20 -70 -15 -8 -21 -6 -30 10 -9 17 -6 30 17 70 15 28 29 50 31 50 1 0 2 -27 2 -60z m-2504 25 c12 -16 10 -20 -16 -37 -17 -10 -33 -18 -35 -18 -3 0 -5 18 -5 40 0 35 3 39 21 37 12 -2 28 -12 35 -22z m804 -16 c0 -21 -2 -39 -5 -39 -2 0 -18 8 -34 18 -27 17 -29 20 -17 38 8 11 23 20 35 21 18 2 21 -4 21 -38z m696 16 c12 -16 10 -20 -16 -37 -17 -10 -33 -18 -35 -18 -3 0 -5 18 -5 40 0 35 3 39 21 37 12 -2 28 -12 35 -22z m804 -16 c0 -21 -2 -39 -5 -39 -2 0 -18 8 -34 18 -27 17 -29 20 -17 38 8 11 23 20 35 21 18 2 21 -4 21 -38z m-2400 -28 l31 -18 -33 -21 c-31 -20 -32 -20 -45 -1 -11 14 -11 24 -3 39 13 24 12 24 50 1z m990 -1 c8 -15 8 -25 -3 -39 -13 -19 -14 -19 -45 1 l-33 21 28 18 c36 23 40 23 53 -1z m510 1 l31 -18 -33 -21 c-31 -20 -32 -20 -45 -1 -11 14 -11 24 -3 39 13 24 12 24 50 1z m990 -1 c8 -15 7 -25 -3 -40 -13 -19 -14 -19 -47 1 l-33 20 29 19 c37 24 41 24 54 0z m-2690 -75 c0 -22 -4 -25 -35 -25 -40 0 -41 2 -18 40 13 23 20 27 35 19 10 -5 18 -21 18 -34z m282 27 c22 -15 24 -20 14 -35 -7 -9 -23 -17 -35 -17 -17 0 -21 6 -21 35 0 40 5 42 42 17z m818 -17 c0 -29 -4 -35 -21 -35 -12 0 -28 8 -35 17 -10 15 -8 20 14 35 37 25 42 23 42 -17z m310 -27 c0 -5 -16 -8 -35 -8 -30 0 -35 3 -35 25 0 13 8 28 17 34 14 7 21 4 35 -17 10 -15 18 -30 18 -34z m90 15 c0 -20 -5 -23 -35 -23 -40 0 -41 2 -18 40 14 24 19 26 35 17 10 -7 18 -22 18 -34z m282 29 c22 -15 24 -20 14 -35 -7 -9 -23 -17 -35 -17 -17 0 -21 6 -21 35 0 40 5 42 42 17z m818 -17 c0 -30 -3 -35 -23 -35 -12 0 -28 9 -35 20 -10 17 -8 21 16 34 39 22 42 20 42 -19z m310 -30 c0 -3 -16 -5 -35 -5 -30 0 -35 3 -35 25 0 13 8 28 17 34 14 7 21 3 35 -20 10 -16 18 -32 18 -34z m-2219 45 c19 -11 19 -12 2 -40 -9 -17 -20 -30 -23 -30 -3 0 -14 13 -23 29 -17 28 -17 30 0 40 23 13 21 13 44 1z m1500 0 c19 -11 19 -12 2 -40 -9 -17 -20 -30 -23 -30 -3 0 -14 13 -23 29 -17 28 -17 30 0 40 23 13 21 13 44 1z m-2053 -36 c11 -24 13 -24 34 -10 32 23 38 20 32 -14 -6 -28 -5 -30 26 -30 32 0 32 0 16 -25 -16 -24 -16 -26 9 -37 32 -14 32 -22 -1 -37 -25 -11 -25 -13 -10 -30 23 -25 20 -31 -15 -31 -30 0 -31 -2 -25 -30 6 -34 0 -37 -32 -14 -21 14 -23 14 -34 -10 -14 -33 -22 -33 -36 -1 -11 25 -13 25 -37 9 -25 -16 -25 -16 -25 15 0 28 -3 31 -31 31 -31 0 -31 0 -15 25 16 24 16 26 -9 37 -32 14 -32 22 0 36 25 11 25 13 9 37 -16 25 -16 25 15 25 28 0 31 3 31 31 0 31 0 31 25 15 24 -16 26 -16 37 9 14 32 22 32 36 -1z m1100 1 c11 -25 13 -25 37 -9 25 16 25 16 25 -15 0 -28 3 -31 31 -31 31 0 31 0 15 -25 -16 -24 -16 -26 9 -37 14 -6 25 -14 25 -18 0 -4 -11 -12 -25 -18 -25 -11 -25 -13 -9 -37 16 -25 16 -25 -15 -25 -28 0 -31 -3 -31 -31 0 -31 0 -31 -25 -15 -31 21 -32 21 -39 -9 -8 -32 -20 -32 -34 1 -11 24 -13 24 -34 10 -32 -23 -38 -20 -31 14 5 28 4 30 -26 30 -35 0 -38 6 -15 31 15 17 15 19 -10 30 -14 7 -26 15 -26 19 0 4 12 12 26 19 25 11 25 13 10 30 -23 25 -20 31 15 31 30 0 31 2 26 30 -7 34 -1 37 31 14 21 -14 23 -14 34 10 14 33 22 33 36 1z m400 -1 c11 -24 13 -24 34 -10 31 22 35 20 30 -14 -4 -28 -2 -30 28 -30 32 0 32 0 16 -25 -16 -24 -16 -26 9 -37 32 -14 32 -22 -1 -37 -25 -11 -25 -13 -10 -30 23 -25 20 -31 -15 -31 -29 0 -31 -2 -27 -30 5 -34 1 -36 -30 -14 -21 14 -23 14 -34 -10 -14 -33 -22 -33 -36 -1 -11 25 -13 25 -37 9 -25 -16 -25 -16 -25 15 0 28 -3 31 -31 31 -31 0 -31 0 -15 25 16 24 16 26 -9 37 -32 14 -32 22 0 36 25 11 25 13 9 37 -16 25 -16 25 15 25 28 0 31 3 31 31 0 31 0 31 25 15 24 -16 26 -16 37 9 14 32 22 32 36 -1z m1100 1 c11 -25 13 -25 37 -9 25 16 25 16 25 -15 0 -28 3 -31 31 -31 31 0 31 0 15 -25 -16 -24 -16 -26 9 -37 14 -6 25 -14 25 -18 0 -4 -11 -12 -25 -18 -25 -11 -25 -13 -9 -37 16 -25 16 -25 -15 -25 -28 0 -31 -3 -31 -31 0 -31 0 -31 -25 -15 -24 16 -26 16 -37 -9 -14 -32 -22 -32 -36 1 -11 24 -13 24 -34 10 -32 -23 -38 -20 -31 14 5 28 4 30 -26 30 -35 0 -38 6 -15 31 15 17 15 19 -10 30 -14 7 -26 15 -26 19 0 4 12 12 26 19 25 11 25 13 10 30 -23 25 -20 31 15 31 30 0 31 2 26 30 -7 34 -1 37 31 14 21 -14 23 -14 34 10 14 33 22 33 36 1z m-1295 -65 c17 -28 17 -29 -3 -40 -14 -8 -26 -8 -40 0 -19 10 -19 13 -5 40 19 37 26 37 48 0z m-1093 -26 c0 -20 -3 -34 -7 -32 -61 29 -62 30 -50 49 7 11 22 19 34 19 20 0 23 -5 23 -36z m310 31 c0 -2 -8 -18 -18 -34 -15 -25 -20 -27 -35 -16 -9 7 -17 22 -17 34 0 17 6 21 35 21 19 0 35 -2 35 -5z m90 -16 c0 -12 -8 -27 -17 -34 -15 -11 -20 -9 -35 16 -24 39 -24 39 17 39 29 0 35 -4 35 -21z m295 4 c11 -15 9 -20 -16 -35 -39 -24 -39 -24 -39 17 0 29 4 35 21 35 12 0 27 -8 34 -17z m805 -18 c0 -40 -2 -41 -40 -18 -23 13 -27 20 -19 35 5 10 21 18 34 18 22 0 25 -4 25 -35z m310 30 c0 -2 -8 -18 -18 -34 -15 -25 -20 -27 -35 -16 -9 7 -17 22 -17 34 0 17 6 21 35 21 19 0 35 -2 35 -5z m90 -16 c0 -12 -8 -28 -17 -35 -15 -10 -20 -8 -35 14 -25 37 -23 42 17 42 29 0 35 -4 35 -21z m295 4 c11 -15 9 -20 -16 -35 -39 -24 -39 -24 -39 17 0 29 4 35 21 35 12 0 27 -8 34 -17z m-2105 -83 c-10 -19 -12 -19 -45 -3 -19 9 -35 20 -35 23 0 4 15 13 33 22 30 14 33 14 45 -3 9 -14 10 -24 2 -39z m110 -23 l0 -62 -30 53 c-25 42 -28 56 -20 72 9 16 15 18 30 10 17 -9 20 -21 20 -73z m290 63 c8 -16 5 -30 -20 -72 l-30 -53 0 62 c0 49 4 64 18 72 22 13 20 14 32 -9z m140 -20 c0 -3 -16 -14 -35 -23 -33 -16 -35 -16 -45 3 -7 14 -7 25 2 39 11 18 13 18 45 3 18 -9 33 -19 33 -22z m960 -20 c-10 -19 -12 -19 -45 -3 -19 9 -35 20 -35 23 0 4 15 13 33 22 30 14 33 14 45 -3 9 -14 10 -24 2 -39z m110 -23 l0 -62 -30 53 c-25 42 -28 56 -20 72 9 16 15 18 30 10 17 -9 20 -21 20 -73z m290 63 c8 -16 5 -30 -20 -72 l-30 -53 0 62 c0 49 4 64 18 72 22 13 20 14 32 -9z m140 -20 c0 -3 -16 -14 -35 -23 -33 -16 -35 -16 -45 3 -7 14 -7 25 2 39 11 18 13 18 45 3 18 -9 33 -19 33 -22z m-1791 -16 c11 -25 13 -25 30 -10 10 9 21 16 24 16 4 0 7 -36 7 -80 0 -74 -3 -86 -37 -150 -21 -38 -40 -70 -43 -70 -3 0 -22 32 -42 70 -35 64 -38 76 -38 150 0 44 3 80 7 80 3 0 14 -7 24 -16 17 -15 19 -15 30 10 15 33 23 33 38 0z m1500 0 c11 -25 13 -25 30 -10 10 9 21 16 24 16 4 0 7 -36 7 -80 0 -74 -3 -86 -37 -150 -21 -38 -40 -70 -43 -70 -3 0 -22 31 -42 69 -35 64 -38 75 -38 151 l0 82 25 -16 c24 -16 26 -16 37 9 14 32 22 32 37 -1z m-1839 -29 c0 -29 -4 -35 -21 -35 -12 0 -27 8 -34 17 -11 15 -9 20 13 35 38 24 42 22 42 -17z m679 17 c25 -15 27 -20 16 -35 -7 -9 -22 -17 -34 -17 -17 0 -21 6 -21 35 0 41 0 41 39 17z m821 -17 c0 -29 -4 -35 -21 -35 -12 0 -28 8 -35 17 -10 15 -8 20 14 35 37 25 42 23 42 -17z m679 17 c25 -15 27 -20 16 -35 -7 -9 -22 -17 -34 -17 -17 0 -21 6 -21 35 0 41 0 41 39 17z m-1088 -2 c19 -11 19 -12 2 -40 -22 -37 -29 -37 -48 0 -14 27 -14 30 3 39 21 13 20 13 43 1z m-928 -80 c34 -64 37 -76 37 -150 0 -44 -2 -80 -4 -80 -2 0 -34 18 -71 39 -57 34 -72 49 -106 106 -21 37 -39 69 -39 71 0 2 14 4 30 4 27 0 30 3 30 30 0 30 0 30 25 14 24 -15 25 -15 36 10 7 14 15 26 18 26 3 0 23 -32 44 -70z m376 44 c11 -25 12 -25 36 -10 25 16 25 16 25 -14 0 -27 3 -30 31 -30 17 0 29 -3 27 -7 -1 -5 -20 -37 -41 -73 -32 -54 -49 -71 -100 -100 -34 -19 -65 -36 -69 -38 -5 -2 -8 33 -8 78 0 74 3 86 38 150 20 38 40 70 43 70 3 0 11 -12 18 -26z m1124 -44 c34 -64 37 -76 37 -150 0 -44 -2 -80 -4 -80 -2 0 -34 18 -71 39 -57 34 -72 49 -106 106 -21 37 -39 69 -39 71 0 2 14 4 31 4 29 0 31 2 27 30 -5 35 -5 35 27 14 24 -15 25 -15 36 10 7 14 15 26 18 26 3 0 23 -32 44 -70z m376 44 c11 -25 12 -25 36 -10 25 16 25 16 25 -14 0 -27 3 -30 31 -30 17 0 29 -3 27 -7 -1 -5 -20 -37 -41 -73 -32 -54 -49 -71 -100 -100 -34 -19 -65 -36 -69 -38 -5 -2 -8 33 -8 78 0 74 3 86 38 150 20 38 40 70 43 70 3 0 11 -12 18 -26z m-2389 -79 c0 -13 -8 -29 -18 -34 -15 -8 -22 -4 -35 19 -23 38 -22 40 18 40 31 0 35 -3 35 -25z m313 -22 c15 -25 26 -47 24 -50 -3 -2 -25 9 -50 24 -33 20 -46 35 -47 51 0 16 6 22 23 22 15 -1 30 -14 50 -47z m787 25 c-1 -16 -14 -31 -47 -51 -25 -15 -47 -26 -50 -24 -2 3 9 25 24 50 20 33 35 46 51 47 16 0 22 -6 22 -22z m310 17 c0 -2 -8 -18 -18 -34 -14 -23 -21 -27 -35 -20 -9 6 -17 21 -17 34 0 22 5 25 35 25 19 0 35 -2 35 -5z m90 -16 c0 -12 -8 -28 -17 -35 -15 -10 -20 -8 -35 14 -25 37 -23 42 17 42 29 0 35 -4 35 -21z m313 -26 c15 -25 26 -47 24 -50 -3 -2 -25 9 -50 24 -33 20 -46 35 -47 51 0 16 6 22 23 22 15 -1 30 -14 50 -47z m787 25 c-1 -16 -14 -31 -47 -51 -25 -15 -47 -26 -50 -24 -2 3 9 25 24 51 20 33 34 46 50 46 17 0 23 -6 23 -22z m310 17 c0 -2 -8 -18 -18 -34 -14 -23 -21 -27 -35 -20 -9 6 -17 21 -17 34 0 22 5 25 35 25 19 0 35 -2 35 -5z m-2815 -65 c20 -39 20 -40 -20 -40 -30 0 -35 3 -35 25 0 19 19 42 37 45 1 0 9 -13 18 -30z m110 -18 c1 -19 -3 -22 -38 -22 -21 0 -37 3 -35 8 31 63 31 63 51 49 11 -7 21 -23 22 -35z m1005 -17 c0 -3 -18 -5 -40 -5 -33 0 -40 3 -40 19 0 11 10 27 22 35 20 15 23 14 40 -15 10 -16 18 -32 18 -34z m90 18 c0 -20 -5 -23 -35 -23 -40 0 -40 1 -20 40 14 26 18 28 35 18 11 -7 20 -23 20 -35z m295 17 c20 -39 20 -40 -20 -40 -30 0 -35 3 -35 25 0 19 19 42 37 45 1 0 9 -13 18 -30z m110 -18 c1 -19 -3 -22 -38 -22 -21 0 -37 3 -35 8 31 63 31 63 51 49 11 -7 21 -23 22 -35z m1005 -17 c0 -3 -18 -5 -40 -5 -33 0 -40 3 -40 19 0 11 10 27 22 35 20 15 23 14 40 -15 10 -16 18 -32 18 -34z m90 18 c0 -20 -5 -23 -35 -23 -40 0 -40 1 -20 40 14 26 18 28 35 18 11 -7 20 -23 20 -35z m-1362 -8 c11 -25 13 -25 37 -9 25 16 25 16 25 -16 0 -30 2 -32 30 -28 34 5 36 1 14 -30 -14 -21 -14 -23 10 -34 33 -14 33 -22 1 -36 -25 -11 -25 -13 -9 -37 16 -25 16 -25 -15 -25 -28 0 -31 -3 -31 -31 0 -31 0 -31 -25 -15 -24 16 -26 16 -37 -9 -6 -14 -14 -25 -18 -25 -4 0 -12 11 -18 25 -11 25 -13 25 -37 9 -25 -16 -25 -16 -25 15 0 28 -3 31 -31 31 -31 0 -31 0 -15 25 16 24 16 26 -9 37 -32 14 -32 22 1 36 24 11 24 13 10 34 -22 31 -20 35 14 30 28 -4 30 -2 30 28 0 32 0 32 25 16 24 -16 26 -16 37 9 6 14 14 25 18 25 4 0 12 -11 18 -25z m-1123 -34 c57 -34 72 -49 106 -106 21 -37 39 -69 39 -71 0 -2 -36 -4 -81 -4 -74 0 -85 3 -140 35 -33 19 -64 35 -70 35 -18 0 -8 17 17 29 25 11 25 12 10 36 -21 32 -21 32 14 27 28 -4 30 -2 30 27 0 17 2 31 4 31 2 0 34 -18 71 -39z m785 8 c0 -29 2 -31 30 -27 35 5 35 5 14 -27 -15 -24 -15 -25 10 -36 25 -12 35 -29 17 -29 -6 0 -37 -16 -70 -35 -55 -32 -66 -35 -140 -35 -45 0 -81 2 -81 4 0 2 18 34 39 71 33 56 50 73 103 105 35 21 66 39 71 39 4 1 7 -13 7 -30z m715 -8 c57 -34 72 -49 106 -106 21 -37 39 -69 39 -71 0 -2 -36 -4 -81 -4 -74 0 -85 3 -140 35 -33 19 -64 35 -70 35 -18 0 -8 17 17 29 25 11 25 12 10 36 -16 25 -16 25 14 25 27 0 30 3 30 30 0 17 2 30 4 30 2 0 34 -18 71 -39z m785 9 c0 -27 3 -30 30 -30 30 0 30 0 15 -24 -16 -24 -15 -25 11 -39 l27 -14 -71 -42 c-67 -39 -75 -41 -151 -41 -45 0 -81 2 -81 4 0 2 18 34 39 71 33 56 50 73 103 105 35 21 66 39 71 39 4 1 7 -12 7 -29z m-2440 -65 c0 -14 -38 -22 -57 -11 l-23 11 21 34 20 34 20 -32 c10 -17 19 -33 19 -36z m1090 14 c13 -23 -31 -43 -55 -25 -15 11 -15 14 2 44 17 29 19 31 31 14 8 -9 17 -24 22 -33z m410 -14 c0 -2 -9 -9 -20 -15 -15 -8 -25 -7 -40 3 -19 13 -19 14 1 47 l20 33 20 -32 c10 -17 19 -33 19 -36z m1090 14 c13 -23 -31 -43 -55 -25 -15 11 -15 14 2 44 17 29 19 31 31 14 8 -9 17 -24 22 -33z m-2127 -10 c24 -44 26 -52 14 -69 -23 -33 -45 -5 -49 63 -2 31 -1 57 2 57 3 0 17 -23 33 -51z m129 -6 c-4 -68 -26 -96 -49 -63 -12 17 -10 25 14 69 16 28 30 51 33 51 3 0 4 -26 2 -57z m1371 6 c24 -44 26 -52 14 -69 -23 -33 -45 -5 -49 63 -2 31 -1 57 2 57 3 0 17 -23 33 -51z m129 -6 c-4 -68 -26 -96 -49 -63 -12 17 -10 25 14 69 16 28 30 51 33 51 3 0 4 -26 2 -57z m-1745 -53 c30 -18 43 -32 43 -47 0 -17 -6 -23 -22 -23 -16 0 -30 13 -48 43 -41 69 -42 68 27 27z m381 23 c-23 -52 -56 -93 -75 -93 -40 0 -29 41 20 72 43 27 61 34 55 21z m1119 -23 c30 -18 43 -32 43 -47 0 -17 -6 -23 -22 -23 -16 0 -30 13 -48 43 -41 69 -42 68 27 27z m381 23 c-23 -52 -56 -93 -75 -93 -40 0 -29 41 20 72 43 27 61 34 55 21z m-2215 -63 l52 -30 -62 0 c-52 0 -64 3 -73 19 -8 16 -6 22 7 30 23 13 16 15 76 -19z m1068 20 c15 -9 17 -15 9 -30 -9 -17 -21 -20 -73 -20 l-62 0 50 30 c59 34 52 32 76 20z m432 -20 l52 -30 -62 0 c-52 0 -64 3 -73 19 -8 16 -6 22 7 30 23 13 16 15 76 -19z m1068 20 c15 -9 17 -15 9 -30 -9 -17 -21 -20 -73 -20 l-62 0 50 30 c59 34 52 32 76 20z m-2244 -108 c10 -12 9 -18 -6 -28 -16 -11 -26 -9 -70 14 -28 15 -51 30 -51 33 0 13 116 -4 127 -19z m473 21 c0 -5 -23 -20 -51 -35 -44 -23 -54 -25 -70 -14 -30 21 -3 44 56 49 28 2 53 4 58 5 4 1 7 -1 7 -5z m1027 -21 c10 -13 9 -18 -7 -29 -17 -12 -25 -10 -69 14 -28 16 -51 31 -51 34 0 13 116 -4 127 -19z m472 15 c-2 -2 -26 -16 -52 -30 -38 -21 -53 -24 -68 -16 -15 8 -17 14 -9 29 8 15 23 20 68 22 55 3 70 2 61 -5z m-2370 -14 c7 -14 3 -21 -20 -35 -39 -24 -39 -24 -39 17 0 30 3 35 25 35 13 0 28 -8 34 -17z m1201 -18 c0 -41 0 -41 -39 -17 -23 14 -27 21 -20 35 6 9 21 17 34 17 22 0 25 -5 25 -35z m299 18 c7 -14 3 -21 -20 -35 -39 -24 -39 -24 -39 17 0 30 3 35 25 35 13 0 28 -8 34 -17z m1201 -18 c0 -40 -2 -41 -40 -18 -23 13 -27 20 -19 35 5 10 21 18 34 18 22 0 25 -4 25 -35z" transform="translate(0.000000,260.000000) scale(0.100000,-0.100000)"/></g></svg>